HIERARCHY
ROOT Hips
{
    OFFSET 0.000000 0.000000 0.000000
    CHANNELS 6 Xposition Yposition Zposition Zrotation Xrotation Yrotation
    JOINT Spine
    {
        OFFSET -0.000000 7.236184 0.000000
        CHANNELS 3 Zrotation Xrotation Yrotation
        JOINT Spine1
        {
            OFFSET -0.000000 20.420147 0.000000
            CHANNELS 3 Zrotation Xrotation Yrotation
            JOINT Neck
            {
                OFFSET -0.000000 20.336288 1.848754
                CHANNELS 3 Zrotation Xrotation Yrotation
                JOINT Head
                {
                    OFFSET -0.000000 12.354461 -1.764923
                    CHANNELS 3 Zrotation Xrotation Yrotation
                    End Site
                    {
                        OFFSET -0.000000 22.061537 0.000000
                    }
                }
            }
            JOINT LeftShoulder
            {
                OFFSET 3.573296 18.396038 -0.314103
                CHANNELS 3 Zrotation Xrotation Yrotation
                JOINT LeftArm
                {
                    OFFSET 10.880760 0.000000 0.000000
                    CHANNELS 3 Zrotation Xrotation Yrotation
                    JOINT LeftForeArm
                    {
                        OFFSET 27.185530 0.000000 0.000000
                        CHANNELS 3 Zrotation Xrotation Yrotation
                        JOINT LeftHand
                        {
                            OFFSET 27.825975 0.000000 0.000000
                            CHANNELS 3 Zrotation Xrotation Yrotation
                            End Site
                            {
                                OFFSET 13.236923 0.000000 0.000000
                            }
                        }
                    }
                }
            }
            JOINT RightShoulder
            {
                OFFSET -3.474926 18.396038 -0.314103
                CHANNELS 3 Zrotation Xrotation Yrotation
                JOINT RightArm
                {
                    OFFSET -10.880760 0.000000 0.000000
                    CHANNELS 3 Zrotation Xrotation Yrotation
                    JOINT RightForeArm
                    {
                        OFFSET -27.185530 0.000000 0.000000
                        CHANNELS 3 Zrotation Xrotation Yrotation
                        JOINT RightHand
                        {
                            OFFSET -27.825975 0.000000 0.000000
                            CHANNELS 3 Zrotation Xrotation Yrotation
                            End Site
                            {
                                OFFSET -13.236923 0.000000 0.000000
                            }
                        }
                    }
                }
            }
        }
    }
    JOINT LeftUpLeg
    {
        OFFSET 8.824615 0.000000 0.000000
        CHANNELS 3 Zrotation Xrotation Yrotation
        JOINT LeftLeg
        {
            OFFSET -0.000000 -35.111282 0.000000
            CHANNELS 3 Zrotation Xrotation Yrotation
            JOINT LeftFoot
            {
                OFFSET -0.000000 -42.324711 0.000000
                CHANNELS 3 Zrotation Xrotation Yrotation
                JOINT LeftToeBase
                {
                    OFFSET -0.000000 -5.735999 13.236923
                    CHANNELS 3 Zrotation Xrotation Yrotation
                    End Site
                    {
                        OFFSET -0.000000 0.000000 3.529846
                    }
                }
            }
        }
    }
    JOINT RightUpLeg
    {
        OFFSET -8.824615 0.000000 0.000000
        CHANNELS 3 Zrotation Xrotation Yrotation
        JOINT RightLeg
        {
            OFFSET -0.000000 -35.111282 0.000000
            CHANNELS 3 Zrotation Xrotation Yrotation
            JOINT RightFoot
            {
                OFFSET -0.000000 -42.324711 0.000000
                CHANNELS 3 Zrotation Xrotation Yrotation
                JOINT RightToeBase
                {
                    OFFSET -0.000000 -5.735999 13.236923
                    CHANNELS 3 Zrotation Xrotation Yrotation
                    End Site
                    {
                        OFFSET -0.000000 0.000000 3.529846
                    }
                }
            }
        }
    }
}
MOTION
Frames:    14
Frame Time:    0.008333
-7.601667    84.132645    103.139427    -0.471154    -8.960977    -178.485168    -2.859462    -13.341370    1.133997    -0.030187    2.603924    1.469205    2.054946    4.818023    -7.786681    6.978103    -2.036433    -7.210089    -1.341450    16.787926    3.138875    -58.238285    23.153072    -25.888874    -1.983039    -8.117783    -9.508210    11.938365    -8.178000    0.995618    7.206770    17.528713    -8.080391    46.305408    43.140938    29.891830    -3.528894    -11.362121    22.243742    -15.576253    -10.253072    -3.180719    2.404077    -18.689007    -8.486310    -0.494837    23.111286    7.281516    -3.432805    -11.311171    -10.476611    -1.491933    -0.865738    1.656333    -11.119690    -4.191250    -5.906771    1.990438    -0.821499    -3.977343    8.915291    -1.145607    -7.134942    -0.381800    0.525442    0.412650    
-7.793187    84.128639    103.119110    -0.328178    -8.962338    -178.499390    -2.942916    -13.234200    1.057002    0.029713    2.437985    1.397865    2.185866    4.646458    -7.840525    7.247329    -2.098972    -7.236679    -1.102797    16.518351    2.930227    -58.000519    22.516193    -25.672691    -1.936371    -8.083513    -9.527039    11.983268    -8.142345    0.971355    7.244343    17.465738    -8.211719    46.646141    42.940407    29.302315    -3.369111    -11.640565    22.169966    -15.746822    -10.569944    -3.114574    2.482845    -18.739222    -7.665552    -0.303772    23.221869    6.947375    -3.459959    -11.382747    -10.852144    -1.372254    -0.770123    1.523205    -11.259876    -4.715388    -5.779533    2.137597    0.098058    -4.045704    9.166709    -1.078350    -7.233805    -0.425934    0.311960    0.460484    
-7.983917    84.126404    103.101089    -0.184881    -8.966203    -178.524185    -3.025882    -13.123601    0.979203    0.092745    2.266601    1.325545    2.321737    4.476766    -7.886000    7.511662    -2.165334    -7.255702    -0.862451    16.246233    2.719481    -57.760326    21.888826    -25.458908    -1.883032    -8.047514    -9.553674    12.037385    -8.103940    0.952013    7.283024    17.402498    -8.345098    46.974426    42.735516    28.723053    -3.214233    -11.908937    22.086618    -15.908897    -10.874519    -3.060700    2.571245    -18.787821    -6.860519    -0.128011    23.323236    6.628374    -3.488139    -11.451008    -11.214514    -1.255235    -0.680864    1.393089    -11.406645    -5.264125    -5.648006    2.298500    1.044348    -4.132721    9.427814    -0.994848    -7.313626    -0.470756    0.088642    0.509097    
-8.172058    84.127556    103.087631    -0.041793    -8.975307    -178.569412    -3.107142    -13.007477    0.900454    0.161279    2.085189    1.251897    2.463384    4.310013    -7.915509    7.767066    -2.236935    -7.259845    -0.619837    15.972001    2.506362    -57.521019    21.282717    -25.251869    -1.819186    -8.008655    -9.597453    12.107752    -8.061142    0.940369    7.323713    17.338589    -8.481017    47.290440    42.524319    28.159081    -3.066533    -12.152283    21.986729    -16.058018    -11.151624    -3.018563    2.674835    -18.833891    -6.085736    0.020541    23.408424    6.341219    -3.519559    -11.510999    -11.555631    -1.143445    -0.602411    1.268842    -11.565311    -5.855774    -5.506214    2.481559    2.033430    -4.248908    9.705025    -0.879500    -7.364020    -0.515866    -0.154679    0.558068    
-8.359516    84.133736    103.080574    0.103204    -8.992173    -178.644913    -3.186668    -12.881895    0.819119    0.238509    1.887171    1.175083    2.614335    4.143729    -7.922355    8.014103    -2.316428    -7.242318    -0.370437    15.691773    2.287024    -57.282295    20.694595    -25.050512    -1.741795    -7.966334    -9.666663    12.197356    -8.013077    0.936842    7.367620    17.272762    -8.622325    47.597790    42.301838    27.606812    -2.925867    -12.363890    21.864187    -16.194923    -11.394760    -2.987166    2.799020    -18.876888    -5.339577    0.136056    23.472507    6.096327    -3.556188    -11.558968    -11.876131    -1.036163    -0.534943    1.149655    -11.743651    -6.518011    -5.348740    2.698148    3.098275    -4.405593    10.009910    -0.714886    -7.375206    -0.561766    -0.430918    0.607954    
-8.546102    84.146500    103.081703    0.250345    -9.018751    -178.759644    -3.263118    -12.744711    0.734272    0.326602    1.669554    1.094029    2.774877    3.977774    -7.899718    8.252660    -2.405986    -7.195868    -0.114314    15.405657    2.060937    -57.046196    20.126785    -24.855108    -1.649688    -7.921843    -9.767386    12.304187    -7.961057    0.940365    7.415431    17.204546    -8.769438    47.894894    42.064651    27.069855    -2.793593    -12.537243    21.716558    -16.317616    -11.597228    -2.965857    2.946281    -18.914478    -4.629598    0.213060    23.508934    5.908785    -3.598582    -11.590240    -12.174909    -0.933401    -0.478815    1.035534    -11.948038    -7.269832    -5.174037    2.958329    4.258521    -4.610305    10.350895    -0.484570    -7.338580    -0.608117    -0.748580    0.658405    
-8.731139    84.167252    103.092468    0.399343    -9.056108    -178.920868    -3.334558    -12.594717    0.645032    0.427618    1.432083    1.007740    2.944445    3.811812    -7.841078    8.480283    -2.506436    -7.113986    0.145789    15.116843    1.830247    -56.813957    19.582499    -24.668169    -1.543473    -7.877919    -9.902720    12.422335    -7.908075    0.948994    7.466147    17.134502    -8.920902    48.177971    41.810760    26.555304    -2.671325    -12.670113    21.544201    -16.422699    -11.756707    -2.953036    3.116398    -18.943134    -3.964723    0.249083    23.511185    5.790929    -3.644246    -11.600863    -12.449085    -0.835834    -0.431914    0.927213    -12.183972    -8.123483    -4.983216    3.271669    5.524997    -4.865487    10.733954    -0.173836    -7.250452    -0.654350    -1.111893    0.708820    
-8.915298    84.197159    103.113731    0.550554    -9.104295    -179.134460    -3.399564    -12.431043    0.549673    0.544304    1.176096    0.914530    3.120583    3.645644    -7.741076    8.699409    -2.618778    -6.990348    0.407762    14.829051    1.597466    -56.584171    19.061075    -24.493208    -1.424027    -7.837880    -10.073478    12.545396    -7.857615    0.960585    7.517464    17.063082    -9.074239    48.445545    41.537132    26.066601    -2.559784    -12.765469    21.348658    -16.508568    -11.876245    -2.946933    3.307369    -18.958488    -3.348399    0.245936    23.474026    5.747491    -3.688302    -11.588780    -12.694658    -0.743808    -0.392892    0.825068    -12.457680    -9.090065    -4.779737    3.648514    6.909380    -5.170614    11.166009    0.231728    -7.111201    -0.699841    -1.522683    0.758535    
-9.105145    84.238411    103.146873    0.709278    -9.164118    -179.413376    -3.458049    -12.247853    0.443467    0.683588    0.896438    0.809245    3.307145    3.472260    -7.590180    8.916355    -2.744678    -6.814458    0.676564    14.538688    1.359639    -56.345703    18.547611    -24.330919    -1.288117    -7.804777    -10.284741    12.671227    -7.812495    0.973990    7.567796    16.988861    -9.230561    48.703159    41.233036    25.592875    -2.456661    -12.831626    21.126329    -16.578072    -11.964747    -2.946564    3.522236    -18.955564    -2.764511    0.207195    23.391142    5.776887    -3.724836    -11.552670    -12.910171    -0.655624    -0.359003    0.727206    -12.783732    -10.210799    -4.567419    4.111142    8.466559    -5.533887    11.668587    0.761579    -6.914624    -0.745060    -1.992217    0.808083    
-9.294246    84.290512    103.191101    0.870472    -9.231735    -179.752869    -3.505178    -12.051177    0.328280    0.844401    0.607280    0.694039    3.494911    3.297393    -7.387562    9.120939    -2.876175    -6.586516    0.938293    14.262358    1.130347    -56.102940    18.066107    -24.194424    -1.140823    -7.785168    -10.527440    12.790337    -7.779543    0.988484    7.610548    16.915524    -9.378345    48.939888    40.909351    25.155054    -2.368186    -12.873716    20.889313    -16.630203    -12.025926    -2.952261    3.749242    -18.928432    -2.238208    0.140107    23.261574    5.874512    -3.744317    -11.494660    -13.075998    -0.576442    -0.330412    0.639346    -13.155107    -11.451712    -4.369104    4.651436    10.145995    -5.938062    12.230859    1.412938    -6.667858    -0.787309    -2.496718    0.854521    
-9.486683    84.354530    103.246513    1.038475    -9.305199    179.840134    -3.538948    -11.837702    0.201386    1.032127    0.308789    0.565596    3.684834    3.117734    -7.127209    9.315802    -3.009717    -6.300332    1.194543    13.997525    0.909039    -55.846043    17.614365    -24.084230    -0.979817    -7.784170    -10.802521    12.902096    -7.763282    1.005785    7.642020    16.842524    -9.515188    49.159985    40.562222    24.745008    -2.293879    -12.903357    20.640144    -16.669691    -12.071139    -2.965851    3.987911    -18.871370    -1.759711    0.052347    23.082354    6.035958    -3.740516    -11.416660    -13.189804    -0.506887    -0.304521    0.562175    -13.578995    -12.832328    -4.202093    5.280488    11.974906    -6.379747    12.866819    2.204942    -6.373110    -0.825986    -3.029122    0.897187    
-9.681261    84.429733    103.311661    1.213422    -9.380315    179.369217    -3.555685    -11.609374    0.063517    1.246610    0.008309    0.425012    3.876167    2.934957    -6.809482    9.492486    -3.135699    -5.958418    1.440750    13.745254    0.699311    -55.571938    17.206396    -24.000109    -0.805978    -7.807674    -11.105049    13.004841    -7.769156    1.028522    7.657872    16.770704    -9.635176    49.362850    40.195747    24.363634    -2.233551    -12.930043    20.389023    -16.699455    -12.109357    -2.989992    4.232458    -18.780050    -1.335093    -0.048116    22.855341    6.260794    -3.709319    -11.322227    -13.251223    -0.449755    -0.279470    0.498789    -14.051417    -14.335380    -4.092607    5.990960    13.932219    -6.840051    13.573618    3.133933    -6.045095    -0.859297    -3.561970    0.934093    
-9.879027    84.515884    103.385452    1.397624    -9.453366    178.834198    -3.552082    -11.364999    -0.085034    1.488936    -0.291298    0.272562    4.071864    2.749835    -6.433052    9.643523    -3.246283    -5.561762    1.676286    13.500041    0.499958    -55.274250    16.852449    -23.937023    -0.617282    -7.861466    -11.434935    13.099632    -7.802061    1.060446    7.655133    16.699610    -9.735834    49.552422    39.806217    24.004658    -2.182455    -12.961051    20.143131    -16.722494    -12.148287    -3.026787    4.480568    -18.649593    -0.964499    -0.154953    22.580523    6.554081    -3.649434    -11.213017    -13.266542    -0.406764    -0.253588    0.451090    -14.573017    -15.957761    -4.067019    6.779223    16.017202    -7.302696    14.354390    4.199618    -5.700257    -0.884938    -4.068519    0.962682    
-10.080979    84.612549    103.466728    1.593580    -9.520745    178.234924    -3.524388    -11.103154    -0.243264    1.758604    -0.588402    0.109072    4.276429    2.564912    -5.997220    9.760698    -3.334002    -5.112364    1.901708    13.255507    0.309261    -54.945492    16.562733    -23.889570    -0.411043    -7.950941    -11.793342    13.188147    -7.866449    1.105161    7.632082    16.629528    -9.815818    49.732620    39.387817    23.661791    -2.134647    -13.001900    19.908043    -16.740192    -12.194191    -3.077734    4.731571    -18.475920    -0.648253    -0.264196    22.259064    6.922554    -3.561885    -11.090203    -13.243661    -0.379138    -0.225499    0.420432    -15.144666    -17.697134    -4.153152    7.638419    18.231373    -7.751153    15.211729    5.395199    -5.359367    -0.899943    -4.516259    0.979655    
